HIERARCHY
ROOT hips
{
	OFFSET -0.003675 0.299928 -0.021708
	CHANNELS 6 Xposition Yposition Zposition Xrotation Yrotation Zrotation
	JOINT LowerBack
	{
		OFFSET 0.000919 0.177588 0.009275
		CHANNELS 3 Xrotation Yrotation Zrotation
		JOINT spine
		{
			OFFSET 0.000919 0.177588 0.009275
			CHANNELS 3 Xrotation Yrotation Zrotation
			JOINT chest
			{
				OFFSET 0.000456 0.100015 0.004638
				CHANNELS 3 Xrotation Yrotation Zrotation
				JOINT neck
				{
					OFFSET 0.000456 0.100015 0.004638
					CHANNELS 3 Xrotation Yrotation Zrotation
					JOINT head
					{
						OFFSET 0.000924 0.155147 0.009274
						CHANNELS 6 Xposition Yposition Zposition Xrotation Yrotation Zrotation
						End Site
						{
							OFFSET 0.000000 0.153400 0.000000
						}
					}
				}
				JOINT shoulder.L
				{
					OFFSET 0.019937 0.078966 0.057518
					CHANNELS 6 Xposition Yposition Zposition Yrotation Xrotation Zrotation
					JOINT upper_arm.L
					{
						OFFSET 0.177024 -0.020465 -0.095062
						CHANNELS 6 Xposition Yposition Zposition Xrotation Yrotation Zrotation
						JOINT forearm.L
						{
							OFFSET 0.247100 -0.135500 -0.061800
							CHANNELS 3 Xrotation Yrotation Zrotation
							JOINT hand.L
							{
								OFFSET 0.217000 -0.143000 0.039300
								CHANNELS 3 Xrotation Yrotation Zrotation
								JOINT palm.01.L
								{
									OFFSET 0.021770 -0.038291 0.012954
									CHANNELS 6 Xposition Yposition Zposition Yrotation Xrotation Zrotation
									JOINT f_index.01.L
									{
										OFFSET 0.053215 -0.044137 0.008236
										CHANNELS 3 Xrotation Yrotation Zrotation
										JOINT f_index.02.L
										{
											OFFSET 0.036108 -0.024723 -0.010656
											CHANNELS 3 Xrotation Yrotation Zrotation
											JOINT f_index.03.L
											{
												OFFSET 0.021342 -0.014948 -0.010846
												CHANNELS 3 Xrotation Yrotation Zrotation
												End Site
												{
													OFFSET 0.015600 -0.009860 -0.013421
												}
											}
										}
									}
									JOINT thumb.01.L
									{
										OFFSET -0.009090 -0.002348 -0.024223
										CHANNELS 6 Xposition Yposition Zposition Xrotation Yrotation Zrotation
										JOINT thumb.02.L
										{
											OFFSET 0.019713 -0.035076 -0.011120
											CHANNELS 3 Xrotation Yrotation Zrotation
											JOINT thumb.03.L
											{
												OFFSET 0.024877 -0.021748 -0.005176
												CHANNELS 3 Xrotation Yrotation Zrotation
												End Site
												{
													OFFSET 0.016125 -0.013029 -0.001569
												}
											}
										}
									}
								}
								JOINT palm.02.L
								{
									OFFSET 0.032823 -0.025104 0.012281
									CHANNELS 6 Xposition Yposition Zposition Yrotation Xrotation Zrotation
									JOINT f_middle.01.L
									{
										OFFSET 0.055723 -0.038469 0.008037
										CHANNELS 3 Xrotation Yrotation Zrotation
										JOINT f_middle.02.L
										{
											OFFSET 0.038167 -0.027473 -0.015582
											CHANNELS 3 Xrotation Yrotation Zrotation
											JOINT f_middle.03.L
											{
												OFFSET 0.021707 -0.016587 -0.017037
												CHANNELS 3 Xrotation Yrotation Zrotation
												End Site
												{
													OFFSET 0.014112 -0.010584 -0.014294
												}
											}
										}
									}
								}
								JOINT palm.03.L
								{
									OFFSET 0.039230 -0.011402 0.008390
									CHANNELS 6 Xposition Yposition Zposition Yrotation Xrotation Zrotation
									JOINT f_ring.01.L
									{
										OFFSET 0.061796 -0.031470 0.007910
										CHANNELS 3 Xrotation Yrotation Zrotation
										JOINT f_ring.02.L
										{
											OFFSET 0.033092 -0.023401 -0.019127
											CHANNELS 3 Xrotation Yrotation Zrotation
											JOINT f_ring.03.L
											{
												OFFSET 0.021392 -0.015362 -0.017824
												CHANNELS 3 Xrotation Yrotation Zrotation
												End Site
												{
													OFFSET 0.008670 -0.007297 -0.014686
												}
											}
										}
									}
								}
								JOINT palm.04.L
								{
									OFFSET 0.043417 0.002450 0.002889
									CHANNELS 6 Xposition Yposition Zposition Yrotation Xrotation Zrotation
									JOINT f_pinky.01.L
									{
										OFFSET 0.069986 -0.026156 0.003627
										CHANNELS 3 Xrotation Yrotation Zrotation
										JOINT f_pinky.02.L
										{
											OFFSET 0.018520 -0.012813 -0.016429
											CHANNELS 3 Xrotation Yrotation Zrotation
											JOINT f_pinky.03.L
											{
												OFFSET 0.013822 -0.009796 -0.014947
												CHANNELS 3 Xrotation Yrotation Zrotation
												End Site
												{
													OFFSET 0.007238 -0.006103 -0.011657
												}
											}
										}
									}
								}
							}
						}
					}
				}
				JOINT shoulder.R
				{
					OFFSET -0.016662 0.078957 0.057696
					CHANNELS 6 Xposition Yposition Zposition Yrotation Xrotation Zrotation
					JOINT upper_arm.R
					{
						OFFSET -0.176972 -0.020537 -0.095144
						CHANNELS 6 Xposition Yposition Zposition Xrotation Yrotation Zrotation
						JOINT forearm.R
						{
							OFFSET -0.247100 -0.135500 -0.061800
							CHANNELS 3 Xrotation Yrotation Zrotation
							JOINT hand.R
							{
								OFFSET -0.217000 -0.143000 0.039300
								CHANNELS 3 Xrotation Yrotation Zrotation
								JOINT palm.01.R
								{
									OFFSET -0.021773 -0.038278 0.012988
									CHANNELS 6 Xposition Yposition Zposition Yrotation Xrotation Zrotation
									JOINT f_index.01.R
									{
										OFFSET -0.053212 -0.044139 0.008249
										CHANNELS 3 Xrotation Yrotation Zrotation
										JOINT f_index.02.R
										{
											OFFSET -0.036049 -0.024835 -0.010634
											CHANNELS 3 Xrotation Yrotation Zrotation
											JOINT f_index.03.R
											{
												OFFSET -0.021371 -0.014881 -0.010866
												CHANNELS 3 Xrotation Yrotation Zrotation
												End Site
												{
													OFFSET -0.015584 -0.009883 -0.013422
												}
											}
										}
									}
									JOINT thumb.01.R
									{
										OFFSET 0.009113 -0.002381 -0.024211
										CHANNELS 6 Xposition Yposition Zposition Xrotation Yrotation Zrotation
										JOINT thumb.02.R
										{
											OFFSET -0.019694 -0.035097 -0.011088
											CHANNELS 3 Xrotation Yrotation Zrotation
											JOINT thumb.03.R
											{
												OFFSET -0.024867 -0.021762 -0.005168
												CHANNELS 3 Xrotation Yrotation Zrotation
												End Site
												{
													OFFSET -0.016120 -0.013036 -0.001565
												}
											}
										}
									}
								}
								JOINT palm.02.R
								{
									OFFSET -0.032828 -0.025095 0.012286
									CHANNELS 6 Xposition Yposition Zposition Yrotation Xrotation Zrotation
									JOINT f_middle.01.R
									{
										OFFSET -0.055721 -0.038472 0.008040
										CHANNELS 3 Xrotation Yrotation Zrotation
										JOINT f_middle.02.R
										{
											OFFSET -0.038101 -0.027593 -0.015557
											CHANNELS 3 Xrotation Yrotation Zrotation
											JOINT f_middle.03.R
											{
												OFFSET -0.021730 -0.016530 -0.017054
												CHANNELS 3 Xrotation Yrotation Zrotation
												End Site
												{
													OFFSET -0.014096 -0.010608 -0.014293
												}
											}
										}
									}
								}
								JOINT palm.03.R
								{
									OFFSET -0.039192 -0.011488 0.008390
									CHANNELS 6 Xposition Yposition Zposition Yrotation Xrotation Zrotation
									JOINT f_ring.01.R
									{
										OFFSET -0.061839 -0.031387 0.007876
										CHANNELS 3 Xrotation Yrotation Zrotation
										JOINT f_ring.02.R
										{
											OFFSET -0.033068 -0.023437 -0.019125
											CHANNELS 3 Xrotation Yrotation Zrotation
											JOINT f_ring.03.R
											{
												OFFSET -0.021371 -0.015393 -0.017822
												CHANNELS 3 Xrotation Yrotation Zrotation
												End Site
												{
													OFFSET -0.008654 -0.007321 -0.014684
												}
											}
										}
									}
								}
								JOINT palm.04.R
								{
									OFFSET -0.043421 0.002443 0.002845
									CHANNELS 6 Xposition Yposition Zposition Yrotation Xrotation Zrotation
									JOINT f_pinky.01.R
									{
										OFFSET -0.069983 -0.026169 0.003599
										CHANNELS 3 Xrotation Yrotation Zrotation
										JOINT f_pinky.02.R
										{
											OFFSET -0.018501 -0.012842 -0.016428
											CHANNELS 3 Xrotation Yrotation Zrotation
											JOINT f_pinky.03.R
											{
												OFFSET -0.013806 -0.009821 -0.014946
												CHANNELS 3 Xrotation Yrotation Zrotation
												End Site
												{
													OFFSET -0.007226 -0.006121 -0.011655
												}
											}
										}
									}
								}
							}
						}
					}
				}
			}
		}
	}
	JOINT pelvis.L
	{
		OFFSET 0.000000 0.000000 0.000000
		CHANNELS 6 Xposition Yposition Zposition Xrotation Yrotation Zrotation
		JOINT thigh.L
		{
			OFFSET 0.101675 0.001054 -0.000000
			CHANNELS 3 Xrotation Yrotation Zrotation
			JOINT shin.L
			{
				OFFSET 0.000000 -0.534800 0.041000
				CHANNELS 3 Xrotation Yrotation Zrotation
				JOINT foot.L
				{
					OFFSET 0.000000 -0.452000 -0.044800
					CHANNELS 3 Xrotation Yrotation Zrotation
					JOINT toe.L
					{
						OFFSET -0.000000 -0.068500 0.109600
						CHANNELS 3 Xrotation Yrotation Zrotation
						End Site
						{
							OFFSET -0.000000 0.000000 0.067200
						}
					}
				}
				JOINT heel.L
				{
					OFFSET 0.000000 -0.452000 -0.044800
					CHANNELS 3 Xrotation Yrotation Zrotation
					JOINT heel.02.L
					{
						OFFSET -0.038000 -0.085200 0.016200
						CHANNELS 6 Xposition Yposition Zposition Xrotation Yrotation Zrotation
						End Site
						{
							OFFSET 0.080000 -0.000000 0.000000
						}
					}
				}
			}
		}
	}
	JOINT pelvis.R
	{
		OFFSET 0.000000 0.000000 0.000000
		CHANNELS 6 Xposition Yposition Zposition Xrotation Yrotation Zrotation
		JOINT thigh.R
		{
			OFFSET -0.094325 0.001054 0.000000
			CHANNELS 3 Xrotation Yrotation Zrotation
			JOINT shin.R
			{
				OFFSET 0.000000 -0.534800 0.041000
				CHANNELS 3 Xrotation Yrotation Zrotation
				JOINT foot.R
				{
					OFFSET 0.000000 -0.452000 -0.044800
					CHANNELS 3 Xrotation Yrotation Zrotation
					JOINT toe.R
					{
						OFFSET -0.000000 -0.068500 0.109600
						CHANNELS 3 Xrotation Yrotation Zrotation
						End Site
						{
							OFFSET -0.000000 0.000000 0.067200
						}
					}
				}
				JOINT heel.R
				{
					OFFSET 0.000000 -0.452000 -0.044800
					CHANNELS 3 Xrotation Yrotation Zrotation
					JOINT heel.02.R
					{
						OFFSET 0.038000 -0.085200 0.016200
						CHANNELS 6 Xposition Yposition Zposition Xrotation Yrotation Zrotation
						End Site
						{
							OFFSET -0.080000 0.000000 -0.000000
						}
					}
				}
			}
		}
	}
}
MOTION
Frames: 4
Frame Time: 0.041667
-0.017648 0.228059 -0.034330 -7.225440 -8.340490 88.320302 -0.000000 -0.000000 0.000000 -0.000001 0.000001 -0.000000 -0.000001 0.000000 0.000000 0.000000 0.000000 -0.000000 0.000924 0.155148 0.009274 -1.060366 -0.002517 -16.157859 0.019937 0.078966 0.057518 -26.983045 0.754809 30.115001 0.177024 -0.020465 -0.095062 1.243707 14.968592 -67.584906 2.465024 1.340852 -7.671412 -0.000001 0.000001 0.000001 0.021770 -0.038291 0.012954 0.000000 0.000001 0.000001 -0.000000 0.000000 -0.000000 -0.000001 -0.000001 0.000007 -0.000000 0.000002 0.000002 -0.009090 -0.002348 -0.024224 -0.000000 -0.000002 -0.000005 -0.000000 -0.000001 0.000001 -0.000001 0.000001 -0.000002 0.032823 -0.025104 0.012281 0.000001 0.000002 0.000004 -0.000001 -0.000001 -0.000004 -0.000003 -0.000004 -0.000000 -0.000002 -0.000002 0.000006 0.039230 -0.011402 0.008390 0.000002 -0.000000 0.000008 0.000000 0.000002 -0.000000 0.000001 0.000004 -0.000002 0.000002 -0.000004 0.000003 0.043417 0.002450 0.002889 -0.000001 0.000002 -0.000000 -0.000001 -0.000003 -0.000002 -0.000000 -0.000001 -0.000002 0.000003 -0.000003 -0.000002 -0.016662 0.078957 0.057696 -27.723526 7.093360 -26.180402 -0.176972 -0.020537 -0.095144 -0.436786 -10.750803 50.265637 -17.381742 15.628576 18.546861 0.000002 0.000002 0.000005 -0.021773 -0.038278 0.012988 -0.000001 -0.000004 0.000003 0.000002 0.000006 -0.000004 -0.000003 0.000001 -0.000004 -0.000003 0.000000 -0.000001 0.009114 -0.002381 -0.024211 0.000003 0.000000 -0.000003 -0.000002 -0.000002 0.000000 0.000000 0.000000 -0.000003 -0.032828 -0.025095 0.012286 0.000002 -0.000002 -0.000001 0.000002 0.000000 0.000001 0.000004 0.000001 0.000001 -0.000005 -0.000001 -0.000006 -0.039192 -0.011488 0.008390 -0.000001 -0.000002 0.000003 -0.000000 0.000002 0.000000 -0.000001 -0.000003 0.000003 -0.000003 0.000004 -0.000002 -0.043421 0.002443 0.002845 0.000002 -0.000002 0.000000 -0.000003 0.000004 -0.000003 0.000000 -0.000002 -0.000002 0.000000 0.000000 0.000002 0.000000 0.000000 0.000000 -1.908214 0.056976 -1.649809 -35.741130 -0.214483 -0.319210 46.845416 -0.427437 4.318815 0.000000 -0.000000 0.000000 0.000001 -0.000001 0.000000 -0.000002 -0.000000 -0.000000 -0.038000 -0.085200 0.016200 -0.000002 -0.000000 0.000000 0.000000 0.000000 0.000000 -1.865369 0.056185 -0.415666 -53.924282 0.641020 4.471826 69.625227 0.415470 -4.193973 0.000002 0.000001 -0.000001 -0.000002 0.000001 -0.000000 0.000005 0.000001 0.000000 0.038000 -0.085200 0.016200 0.000000 -0.000000 -0.000001 
-0.018200 0.228352 -0.033970 -11.110179 -7.319297 87.780533 -0.000000 0.000000 0.000000 -0.000001 0.000002 -0.000000 0.000000 -0.000000 0.000000 0.000001 -0.000001 -0.000000 0.000924 0.155148 0.009274 -2.797509 0.003675 -15.175798 0.019937 0.078966 0.057518 -28.697036 1.017540 30.407213 0.177025 -0.020465 -0.095062 0.425812 14.815816 -67.981925 -0.737214 -2.361089 -8.391733 -0.000000 -0.000001 0.000002 0.021770 -0.038291 0.012954 -0.000000 -0.000001 -0.000002 -0.000001 -0.000000 0.000001 0.000001 -0.000000 0.000005 0.000002 0.000002 0.000002 -0.009090 -0.002348 -0.024224 0.000002 -0.000001 -0.000003 0.000001 0.000001 -0.000000 -0.000001 -0.000000 -0.000002 0.032823 -0.025104 0.012281 -0.000002 0.000001 0.000002 0.000000 -0.000003 -0.000004 -0.000004 -0.000004 0.000003 -0.000000 -0.000000 0.000000 0.039230 -0.011402 0.008390 -0.000001 -0.000001 0.000001 -0.000002 -0.000000 -0.000002 0.000001 0.000005 0.000005 -0.000003 -0.000003 0.000005 0.043417 0.002450 0.002889 -0.000001 -0.000002 -0.000005 -0.000000 0.000002 -0.000004 0.000004 0.000001 -0.000003 -0.000001 0.000000 0.000002 -0.016662 0.078956 0.057696 -27.391442 6.669835 -24.813524 -0.176972 -0.020537 -0.095144 0.566037 -11.176068 50.024978 -12.092553 12.597654 15.418773 0.000001 0.000002 -0.000000 -0.021773 -0.038278 0.012988 0.000001 -0.000000 0.000000 -0.000001 0.000000 0.000002 0.000000 -0.000004 -0.000003 -0.000004 -0.000002 -0.000001 0.009114 -0.002381 -0.024212 0.000002 -0.000000 0.000004 -0.000001 -0.000003 0.000004 0.000001 0.000001 -0.000006 -0.032828 -0.025095 0.012286 0.000003 0.000001 0.000001 -0.000002 0.000000 0.000001 -0.000004 0.000000 -0.000006 0.000001 0.000007 -0.000000 -0.039192 -0.011488 0.008390 0.000001 0.000003 0.000007 0.000005 0.000000 -0.000002 -0.000004 -0.000001 -0.000004 -0.000001 -0.000001 0.000001 -0.043421 0.002443 0.002845 0.000003 0.000003 0.000002 0.000000 0.000004 -0.000001 -0.000002 0.000002 -0.000000 -0.000004 0.000000 0.000002 0.000000 0.000000 0.000000 -1.901383 0.181106 -3.100453 -34.611803 -0.358416 -2.252438 43.116368 -0.708463 7.169041 0.000000 -0.000000 -0.000000 0.000000 0.000001 -0.000001 0.000003 -0.000001 0.000000 -0.038000 -0.085200 0.016200 0.000001 0.000001 -0.000001 0.000000 0.000000 0.000000 -1.854522 0.179056 -1.866414 -54.290186 0.494320 2.535963 68.168689 -0.083859 0.847687 0.000000 0.000000 0.000001 0.000005 -0.000000 -0.000000 0.000005 0.000000 0.000001 0.038000 -0.085200 0.016200 -0.000002 -0.000000 0.000001 
-0.020580 0.228402 -0.032845 -1.461585 -7.611677 90.800146 0.000000 -0.000000 -0.000000 0.000000 -0.000000 0.000000 0.000000 0.000000 0.000000 -0.000000 0.000000 -0.000000 0.000924 0.155148 0.009274 -16.546384 0.041665 -20.717400 0.019937 0.078966 0.057518 -3.250494 0.296300 26.576380 0.177025 -0.020466 -0.095062 -13.144790 12.812332 -52.868458 -3.637112 -8.531975 12.916060 -0.000000 0.000003 0.000004 0.021770 -0.038291 0.012954 -0.000001 -0.000003 -0.000000 -0.000002 -0.000001 -0.000000 -0.000000 0.000004 0.000000 -0.000000 0.000005 -0.000005 -0.009090 -0.002348 -0.024223 -0.000002 -0.000002 0.000001 -0.000001 -0.000000 0.000005 -0.000003 -0.000001 0.000003 0.032823 -0.025104 0.012281 -0.000002 -0.000001 0.000002 0.000004 0.000001 -0.000005 -0.000003 0.000001 0.000003 -0.000000 0.000001 0.000001 0.039230 -0.011402 0.008390 0.000000 -0.000003 0.000001 -0.000000 0.000001 -0.000002 -0.000003 0.000007 0.000003 0.000003 -0.000000 0.000002 0.043417 0.002450 0.002889 -0.000003 -0.000002 -0.000003 -0.000008 -0.000001 -0.000000 0.000001 -0.000001 -0.000001 0.000001 0.000000 -0.000003 -0.016662 0.078957 0.057696 -0.866030 1.648354 -28.587641 -0.176972 -0.020537 -0.095144 -4.484944 -11.624887 54.540884 -17.032170 13.590214 25.731418 -0.000000 0.000000 0.000004 -0.021773 -0.038278 0.012988 0.000001 -0.000003 -0.000003 -0.000003 0.000006 -0.000003 0.000002 -0.000002 -0.000005 0.000001 -0.000002 0.000003 0.009114 -0.002381 -0.024211 -0.000001 0.000001 -0.000003 -0.000002 -0.000001 -0.000001 -0.000001 -0.000001 -0.000004 -0.032828 -0.025095 0.012286 0.000006 -0.000003 -0.000003 0.000001 0.000002 0.000008 0.000001 0.000001 0.000001 -0.000005 0.000003 -0.000006 -0.039192 -0.011488 0.008390 0.000002 -0.000002 -0.000000 -0.000001 0.000001 0.000000 -0.000000 0.000004 0.000002 -0.000002 -0.000002 -0.000003 -0.043421 0.002443 0.002845 0.000001 -0.000002 0.000002 -0.000004 0.000006 -0.000001 0.000001 -0.000002 -0.000002 -0.000000 -0.000003 -0.000000 0.000000 0.000000 -0.000000 -1.899417 -0.306630 2.595774 -33.437222 -0.048485 1.749515 76.437364 -0.503759 5.091571 -0.000002 0.000001 0.000000 0.000003 0.000001 0.000001 0.000003 -0.000001 -0.000000 -0.038000 -0.085200 0.016200 -0.000001 -0.000000 -0.000000 0.000000 0.000000 -0.000000 -1.868774 -0.304926 3.830129 -45.495467 0.224126 -0.608368 76.797547 -0.206686 2.087602 0.000000 -0.000000 0.000000 0.000003 -0.000000 -0.000000 0.000005 0.000000 0.000000 0.038000 -0.085200 0.016200 -0.000000 0.000000 -0.000000 
-0.024142 0.256850 -0.032942 50.075443 30.426532 67.655387 0.000001 0.000001 -0.000001 0.000002 -0.000000 -0.000004 -0.000002 0.000002 -0.000002 0.000002 0.000002 -0.000003 0.000924 0.155148 0.009274 -16.164333 0.064289 0.766310 0.019937 0.078966 0.057518 6.862148 -2.313079 20.030095 0.177025 -0.020465 -0.095062 -18.679352 16.893635 -80.174721 -2.247796 -4.536893 -16.069485 -0.000001 -0.000001 0.000002 0.021770 -0.038291 0.012954 0.000001 0.000002 -0.000001 -0.000003 -0.000001 0.000001 0.000000 0.000001 0.000005 -0.000002 0.000000 0.000003 -0.009090 -0.002348 -0.024223 -0.000001 -0.000001 -0.000001 0.000003 -0.000001 -0.000000 0.000002 0.000001 0.000003 0.032823 -0.025104 0.012281 0.000000 0.000003 0.000002 -0.000003 0.000002 -0.000002 -0.000005 0.000003 0.000002 -0.000000 0.000001 0.000001 0.039230 -0.011402 0.008390 0.000000 0.000001 0.000004 0.000001 0.000001 -0.000000 0.000000 0.000005 -0.000002 -0.000003 -0.000001 0.000004 0.043417 0.002450 0.002889 0.000000 -0.000000 -0.000002 -0.000001 -0.000003 -0.000002 -0.000002 -0.000003 0.000001 0.000000 -0.000002 -0.000001 -0.016662 0.078957 0.057696 23.686106 -4.740234 -22.195902 -0.176972 -0.020537 -0.095144 -32.250763 -17.810664 64.274949 0.531733 2.338754 16.644259 0.000001 0.000000 0.000000 -0.021773 -0.038278 0.012988 -0.000004 -0.000003 -0.000005 -0.000003 0.000001 -0.000001 0.000002 0.000001 -0.000001 0.000002 -0.000005 0.000003 0.009114 -0.002381 -0.024211 -0.000000 -0.000004 -0.000001 0.000001 0.000000 -0.000005 -0.000002 -0.000000 -0.000008 -0.032828 -0.025095 0.012286 -0.000000 -0.000001 -0.000006 0.000003 0.000003 0.000001 0.000002 -0.000001 -0.000002 -0.000001 0.000005 -0.000004 -0.039192 -0.011488 0.008390 -0.000001 -0.000003 -0.000004 0.000002 0.000008 -0.000005 0.000003 -0.000003 0.000003 -0.000002 -0.000003 -0.000002 -0.043421 0.002443 0.002845 -0.000001 -0.000001 -0.000007 -0.000003 0.000003 -0.000001 -0.000002 -0.000001 -0.000000 -0.000003 0.000000 -0.000003 -0.000000 0.000000 0.000000 -2.294668 0.720193 -8.688812 -84.604536 -0.461072 -1.783279 76.286431 0.806590 -8.163825 -0.000003 -0.000003 -0.000006 -0.000001 0.000001 -0.000004 0.000002 -0.000001 -0.000005 -0.038000 -0.085200 0.016200 -0.000003 0.000000 -0.000001 -0.000000 0.000000 0.000000 -2.218567 0.709365 -7.455584 -91.125406 -0.148467 -6.893829 72.319067 -0.505387 5.107618 0.000003 0.000002 0.000005 0.000000 0.000003 0.000003 0.000002 0.000004 0.000002 0.038000 -0.085200 0.016200 0.000001 0.000008 0.000002 
